<svg xmlns="http://www.w3.org/2000/svg" xmlns:xlink="http://www.w3.org/1999/xlink" width="40" zoomAndPan="magnify" viewBox="0 0 30 30.000001" height="40" preserveAspectRatio="xMidYMid meet" version="1.0"><path fill="#727cf5" d="M 25.070312 7.800781 L 19.195312 7.800781 L 19.195312 6.125 C 19.195312 5.902344 19.152344 5.6875 19.066406 5.480469 C 18.984375 5.277344 18.863281 5.09375 18.703125 4.9375 C 18.546875 4.78125 18.367188 4.660156 18.160156 4.574219 C 17.953125 4.488281 17.738281 4.445312 17.519531 4.445312 L 12.480469 4.445312 C 12.261719 4.445312 12.046875 4.488281 11.839844 4.574219 C 11.632812 4.660156 11.453125 4.78125 11.296875 4.9375 C 11.136719 5.09375 11.015625 5.277344 10.933594 5.480469 C 10.847656 5.6875 10.804688 5.902344 10.804688 6.125 L 10.804688 7.800781 L 4.929688 7.800781 C 4.707031 7.800781 4.492188 7.84375 4.289062 7.929688 C 4.082031 8.015625 3.898438 8.136719 3.742188 8.292969 C 3.585938 8.453125 3.464844 8.632812 3.378906 8.839844 C 3.292969 9.042969 3.25 9.257812 3.25 9.480469 L 3.25 22.910156 C 3.25 23.128906 3.292969 23.34375 3.378906 23.550781 C 3.464844 23.757812 3.585938 23.9375 3.742188 24.09375 C 3.898438 24.253906 4.082031 24.375 4.289062 24.457031 C 4.492188 24.542969 4.707031 24.585938 4.929688 24.585938 L 25.070312 24.585938 C 25.292969 24.585938 25.507812 24.542969 25.710938 24.457031 C 25.917969 24.375 26.101562 24.253906 26.257812 24.09375 C 26.414062 23.9375 26.535156 23.757812 26.621094 23.550781 C 26.707031 23.34375 26.75 23.128906 26.75 22.910156 L 26.75 9.480469 C 26.75 9.257812 26.707031 9.042969 26.621094 8.839844 C 26.535156 8.632812 26.414062 8.453125 26.257812 8.292969 C 26.101562 8.136719 25.917969 8.015625 25.710938 7.929688 C 25.507812 7.84375 25.292969 7.800781 25.070312 7.800781 Z M 12.480469 6.125 L 17.519531 6.125 L 17.519531 7.800781 L 12.480469 7.800781 Z M 25.070312 9.480469 L 25.070312 17.035156 L 4.929688 17.035156 L 4.929688 9.480469 Z M 4.929688 22.910156 L 4.929688 18.710938 L 25.070312 18.710938 L 25.070312 22.910156 Z M 4.929688 22.910156 " fill-opacity="1" fill-rule="nonzero"/><path fill="#727cf5" d="M 14.160156 16.195312 L 15.839844 16.195312 C 16.070312 16.195312 16.269531 16.113281 16.433594 15.949219 C 16.597656 15.785156 16.679688 15.585938 16.679688 15.355469 C 16.679688 15.125 16.597656 14.925781 16.433594 14.761719 C 16.269531 14.597656 16.070312 14.515625 15.839844 14.515625 L 14.160156 14.515625 C 13.929688 14.515625 13.730469 14.597656 13.566406 14.761719 C 13.402344 14.925781 13.320312 15.125 13.320312 15.355469 C 13.320312 15.585938 13.402344 15.785156 13.566406 15.949219 C 13.730469 16.113281 13.929688 16.195312 14.160156 16.195312 Z M 14.160156 16.195312 " fill-opacity="1" fill-rule="nonzero"/></svg>